<svg xmlns="http://www.w3.org/2000/svg" xmlns:xlink="http://www.w3.org/1999/xlink" width="36px" height="37px">
  <path fill-rule="evenodd"  fill="rgb(255, 255, 255)" d="M33.444,20.551 C33.444,20.551 35.080,21.191 35.080,23.137 C35.080,25.107 33.377,25.996 32.256,25.996 C32.954,26.343 33.928,27.010 33.714,28.696 C33.499,30.381 32.298,30.994 31.112,31.358 C31.879,31.831 32.437,33.141 32.010,34.149 C31.436,35.505 29.921,37.000 26.518,37.000 C22.401,37.000 11.077,37.000 10.625,37.000 C9.421,37.000 8.525,36.450 8.338,35.772 C8.338,34.381 8.338,17.197 8.338,17.197 C8.338,17.197 8.338,16.600 8.428,16.444 C12.667,10.199 14.171,8.419 13.920,4.804 C13.670,1.190 14.387,0.195 16.095,0.017 C17.802,-0.161 21.010,0.771 21.573,6.688 C21.816,9.248 19.989,14.289 19.989,14.289 C19.989,14.289 31.641,14.296 32.773,14.296 C34.583,14.296 36.001,15.071 36.001,17.541 C36.001,19.855 33.444,20.551 33.444,20.551 ZM1.000,37.000 L-0.000,37.000 L-0.000,15.250 L1.000,15.250 L6.219,15.250 L7.219,15.250 L7.219,37.000 L6.219,37.000 L1.000,37.000 Z"/>
</svg>